<?xml version="1.0" encoding="UTF-8" standalone="no"?>
<!-- Created with Inkscape (http://www.inkscape.org/) -->

<svg
   width="24"
   height="24"
   viewBox="0 0 6.3499999 6.35"
   version="1.1"
   id="svg1"
   xmlns="http://www.w3.org/2000/svg"
   xmlns:svg="http://www.w3.org/2000/svg">
  <defs
     id="defs1" />
  <g
     id="layer1">
    <path
       style="color:#000000;fill:#999999;stroke-dasharray:1.05833, 0.529167;-inkscape-stroke:none"
       d="m 3.1757813,1.0683594 -0.109375,0.00391 -0.1074219,0.00781 -0.1054688,0.013672 -0.1054687,0.017578 -0.1015625,0.023437 -0.1015625,0.029297 -0.097656,0.033203 -0.095703,0.037109 -0.052734,0.023437 0.21875,0.4824219 0.039063,-0.017578 0.072266,-0.027344 0.074219,-0.025391 0.074219,-0.021484 0.078125,-0.017578 0.078125,-0.013672 0.078125,-0.011719 0.082031,-0.00586 0.082031,-0.00195 0.082031,0.00195 0.080078,0.00586 0.070312,0.00977 0.066406,-0.5253907 -0.083984,-0.00977 -0.1074219,-0.00781 z m 0.8808593,0.1933593 -0.21875,0.4824219 0.025391,0.00977 0.068359,0.035156 0.066406,0.039063 0.064453,0.041016 0.0625,0.044922 0.060547,0.046875 0.056641,0.048828 0.054687,0.052734 0.052734,0.056641 0.050781,0.056641 0.046875,0.060547 0.044922,0.0625 0.019531,0.03125 0.4453125,-0.2851562 -0.027344,-0.042969 -0.058594,-0.083984 -0.0625,-0.078125 -0.066406,-0.078125 -0.070312,-0.072266 -0.074219,-0.070312 -0.076172,-0.066406 -0.080078,-0.0625 L 4.359375,1.4296875 4.2734375,1.375 4.1835937,1.3242187 4.09375,1.2773437 Z m -2.265625,0.3222657 -0.039063,0.035156 -0.074219,0.070312 -0.070312,0.072266 -0.066406,0.078125 -0.0625,0.078125 -0.058594,0.083984 -0.054687,0.085937 -0.050781,0.087891 -0.046875,0.091797 -0.042969,0.09375 -0.037109,0.095703 -0.033203,0.099609 -0.00977,0.033203 0.5078125,0.1445312 0.00586,-0.021484 0.025391,-0.072266 0.029297,-0.072266 0.03125,-0.070312 0.035156,-0.068359 0.037109,-0.066406 0.042969,-0.064453 0.042969,-0.0625 0.046875,-0.060547 L 2,2.1191406 2.0527344,2.0625 l 0.054687,-0.052734 0.03125,-0.025391 z m 3.4160156,1.0117187 -0.5078125,0.1445313 0.013672,0.048828 0.017578,0.076172 0.013672,0.078125 0.00977,0.080078 0.00586,0.080078 0.00195,0.076172 v 0.011719 l -0.00195,0.076172 -0.00586,0.080078 -0.00977,0.080078 -0.013672,0.078125 -0.017578,0.076172 -0.021484,0.076172 -0.025391,0.072266 -0.027344,0.072266 -0.033203,0.070312 -0.035156,0.068359 -0.037109,0.066406 -0.023437,0.037109 0.4453125,0.2851562 0.029297,-0.046875 0.052734,-0.087891 0.044922,-0.091797 0.042969,-0.09375 0.039063,-0.095703 0.033203,-0.099609 0.027344,-0.099609 0.023437,-0.1035157 0.019531,-0.1035156 0.013672,-0.1054687 0.00781,-0.1074219 0.00195,-0.1035156 -0.2636719,-0.00586 0.2636719,-0.00586 L 5.2890625,3.0761719 5.28125,2.96875 5.2675781,2.8632813 5.2480469,2.7597656 5.2246094,2.65625 Z M 1.0585937,3.1757813 v 0.00977 l 0.00195,0.109375 0.00781,0.1074219 0.013672,0.1054687 0.019531,0.1035156 0.023437,0.1035157 0.029297,0.099609 0.033203,0.099609 0.037109,0.095703 0.042969,0.09375 0.046875,0.091797 0.050781,0.087891 0.029297,0.044922 0.4453125,-0.2851563 -0.023437,-0.035156 -0.037109,-0.066406 -0.035156,-0.068359 -0.03125,-0.070312 -0.029297,-0.072266 -0.025391,-0.072266 -0.021484,-0.076172 -0.017578,-0.076172 -0.013672,-0.078125 -0.00977,-0.080078 -0.00586,-0.080078 -0.00195,-0.078125 z m 1.0761719,1.2089843 -0.3457031,0.3984375 0.039063,0.035156 0.080078,0.0625 0.083984,0.060547 0.085937,0.054687 0.087891,0.050781 0.091797,0.046875 0.09375,0.042969 0.095703,0.037109 0.097656,0.033203 0.1015625,0.029297 0.1015625,0.023437 0.1054687,0.017578 0.023437,0.00391 0.066406,-0.5253906 -0.00977,-0.00195 -0.078125,-0.013672 -0.078125,-0.017578 -0.074219,-0.021484 -0.074219,-0.025391 -0.072266,-0.027344 -0.070312,-0.03125 -0.068359,-0.035156 -0.066406,-0.039063 -0.064453,-0.041016 -0.0625,-0.044922 -0.058594,-0.046875 z m 2.0800781,0 -0.029297,0.025391 -0.060547,0.046875 -0.0625,0.044922 -0.064453,0.041016 -0.066406,0.039063 -0.068359,0.035156 -0.070312,0.03125 -0.072266,0.027344 -0.074219,0.025391 -0.074219,0.021484 -0.076172,0.017578 -0.078125,0.013672 -0.013672,0.00195 0.066406,0.5253906 0.027344,-0.00391 L 3.6015625,5.2597656 3.703125,5.2363281 3.8046875,5.2070312 3.9023438,5.1738281 4,5.1367187 4.09375,5.09375 l 0.089844,-0.046875 0.089844,-0.050781 0.085937,-0.054687 0.082031,-0.060547 0.080078,-0.0625 0.039063,-0.033203 z"
       id="path132" />
  </g>
</svg>
