<?xml version="1.0" encoding="UTF-8" standalone="no"?>
<!-- Created with Inkscape (http://www.inkscape.org/) -->

<svg
   width="16"
   height="16"
   viewBox="0 0 4.2333333 4.2333333"
   version="1.1"
   id="svg17148"
   xmlns="http://www.w3.org/2000/svg"
   xmlns:svg="http://www.w3.org/2000/svg">
  <defs
     id="defs17145" />
  <g
     id="layer1">
    <g
       id="g62923">
      <path
         style="color:#000000;fill:#ffffff;stroke-linecap:round;stroke-linejoin:round;-inkscape-stroke:none"
         d="m 2.2675781,-2.6542969 a 0.269923,0.269923 0 0 0 -0.2695312,0.2695313 c 0,0.3842388 -0.2033564,0.7398198 -0.5351563,0.9335937 -0.3317998,0.193774 -0.74151454,0.1966086 -1.07617185,0.00781 a 0.269923,0.269923 0 0 0 -0.3671875,0.1015625 0.269923,0.269923 0 0 0 0.10351562,0.36914065 C 0.62411267,-0.68998118 1.2375875,-0.6962 1.734375,-0.98632813 2.2311625,-1.2764563 2.5371094,-1.8094639 2.5371094,-2.3847656 A 0.269923,0.269923 0 0 0 2.2675781,-2.6542969 Z"
         id="path37501-4"
         transform="matrix(0.86949792,-0.49393661,-0.49393661,-0.86949792,0,0)" />
      <g
         id="path37503-7"
         transform="matrix(0.33508744,-0.01524126,0.01542111,0.33117963,-339.90915,27.35967)">
        <path
           style="color:#000000;fill:#ffffff;stroke-width:1.61882;stroke-linecap:round;stroke-linejoin:round;-inkscape-stroke:none"
           d="m 1027,-29 -1.616,-1.066987 -1.6161,-1.066988 L 1025.5,-32 l 1.7321,-0.866025 -0.1161,1.933012 z"
           id="path62793" />
        <path
           style="color:#000000;fill:#ffffff;stroke-linecap:round;stroke-linejoin:round;-inkscape-stroke:none"
           d="m 1027.4199,-33.652344 c -0.1846,-0.04415 -0.3789,-0.02203 -0.5488,0.0625 l -1.7324,0.865235 -1.7325,0.867187 c -0.5561,0.27898 -0.6027,1.054898 -0.084,1.398438 l 1.6152,1.068359 1.6172,1.066406 c 0.52,0.343148 1.2164,-0.0051 1.2539,-0.626953 l 0.1152,-1.933594 0.1172,-1.933593 c 0.023,-0.391798 -0.2393,-0.743298 -0.6211,-0.833985 z"
           id="path62795" />
      </g>
      <path
         style="color:#000000;fill:#ffffff;stroke-linecap:round;stroke-linejoin:round;-inkscape-stroke:none"
         d="M 0.67773437,3.1171875 A 0.269923,0.269923 0 0 0 0.40820313,3.3886719 c -1e-8,0.3842388 -0.20335639,0.7378666 -0.53515625,0.9316406 -0.33179987,0.193774 -0.74151457,0.1966086 -1.07617188,0.00781 A 0.269923,0.269923 0 0 0 -1.5703125,4.4316406 0.269923,0.269923 0 0 0 -1.46875,4.7988281 C -0.9676842,5.0815032 -0.35225623,5.0772375 0.14453125,4.7871094 0.64131873,4.4969812 0.94726562,3.9639736 0.94726563,3.3886719 A 0.269923,0.269923 0 0 0 0.67773437,3.1171875 Z"
         id="path37505-9"
         transform="matrix(-0.86949792,0.49393661,0.49393661,0.86949792,0,0)" />
      <g
         id="path37507-3"
         transform="matrix(-0.33508744,0.01524126,-0.01542111,-0.33117963,344.14249,-23.126447)">
        <path
           style="color:#000000;fill:#ffffff;stroke-width:1.61882;stroke-linecap:round;stroke-linejoin:round;-inkscape-stroke:none"
           d="m 1027,-29 -1.616,-1.066987 -1.6161,-1.066988 L 1025.5,-32 l 1.7321,-0.866025 -0.1161,1.933012 z"
           id="path62855" />
        <path
           style="color:#000000;fill:#ffffff;stroke-linecap:round;stroke-linejoin:round;-inkscape-stroke:none"
           d="m 1027.4199,-33.652344 c -0.1852,-0.04464 -0.3803,-0.02251 -0.5508,0.0625 l -1.7304,0.865235 -1.7325,0.867187 c -0.5561,0.27898 -0.6027,1.054898 -0.084,1.398438 l 1.6152,1.068359 1.6172,1.066406 c 0.52,0.343148 1.2164,-0.0051 1.2539,-0.626953 l 0.1152,-1.933594 0.1153,-1.933593 c 0.023,-0.391228 -0.2381,-0.74252 -0.6192,-0.833985 z"
           id="path62857" />
      </g>
    </g>
  </g>
</svg>
