<?xml version="1.0" encoding="UTF-8" standalone="no"?>
<!-- Created with Inkscape (http://www.inkscape.org/) -->

<svg
   width="32"
   height="32"
   viewBox="0 0 8.4666664 8.4666666"
   version="1.1"
   id="svg1"
   xmlns="http://www.w3.org/2000/svg"
   xmlns:svg="http://www.w3.org/2000/svg">
  <defs
     id="defs1" />
  <g
     id="g2">
    <path
       style="color:#000000;fill:#38a2ff;stroke-linecap:round;stroke-linejoin:round;-inkscape-stroke:none"
       d="m 1.3730469,-7.8242187 c -0.41621241,0.01618 -0.82776107,0.1622985 -1.1699219,0.4335937 -0.68432165,0.5425905 -0.94068592,1.4686343 -0.63085938,2.2851563 0.30982655,0.8165219 1.11627156,1.340923 1.98828128,1.2929687 0.8720097,-0.047954 1.6155611,-0.6563812 1.8339844,-1.5019531 A 0.3346675,0.3346675 0 0 0 3.1542969,-5.7226562 0.3346675,0.3346675 0 0 0 2.7460938,-5.4824219 C 2.5999131,-4.9165193 2.1070337,-4.5125624 1.5234375,-4.4804687 0.9398413,-4.4483751 0.40657148,-4.7953361 0.19921875,-5.3417969 -0.00813398,-5.8882576 0.16115545,-6.5040565 0.61914062,-6.8671875 1.0771258,-7.2303185 1.7124727,-7.2542161 2.1972656,-6.9277344 a 0.3346675,0.3346675 0 0 0 0.4648438,-0.089844 0.3346675,0.3346675 0 0 0 -0.089844,-0.4648438 C 2.2100767,-7.7263365 1.7892593,-7.8403985 1.3730469,-7.8242187 Z"
       id="path1308-3"
       transform="matrix(0.86949793,-0.49393659,-0.49393659,-0.86949793,0,0)" />
    <g
       id="path1310-6"
       transform="matrix(0.31581087,-0.17180362,0.17014467,0.31196023,-313.35352,189.14002)">
      <path
         style="color:#000000;fill:#38a2ff;stroke-linecap:round;stroke-linejoin:round;-inkscape-stroke:none"
         d="m 1027,-29 -1.616,-1.066987 -1.6161,-1.066988 L 1025.5,-32 l 1.7321,-0.866025 -0.1161,1.933012 z"
         id="path1" />
      <path
         style="color:#000000;fill:#38a2ff;stroke-linecap:round;stroke-linejoin:round;-inkscape-stroke:none"
         d="m 1027.4199,-33.652344 c -0.1846,-0.04415 -0.3789,-0.02203 -0.5488,0.0625 l -1.7324,0.865235 -1.7325,0.867187 c -0.5561,0.27898 -0.6027,1.054898 -0.084,1.398438 l 1.6152,1.068359 1.6172,1.066406 c 0.52,0.343148 1.2164,-0.0051 1.2539,-0.626953 l 0.1152,-1.933594 0.1172,-1.933593 c 0.023,-0.391798 -0.2393,-0.743298 -0.6211,-0.833985 z"
         id="path2" />
    </g>
  </g>
</svg>
